<svg width="65" height="64" viewBox="0 0 65 64" fill="none" xmlns="http://www.w3.org/2000/svg">
<rect x="0.364258" width="64" height="64" rx="32" fill="#E9F1FF"/>
<path d="M27.6975 35C27.6975 37.56 29.8042 39.6667 32.3642 39.6667C34.9242 39.6667 37.0308 37.56 37.0308 35M28.1108 18.6667L23.2842 23.5067M36.6175 18.6667L41.4442 23.5067" stroke="#2756FF" stroke-width="1.5" stroke-miterlimit="10" stroke-linecap="round" stroke-linejoin="round"/>
<path d="M19.0308 26.4667C19.0308 24 20.3508 23.8 21.9908 23.8H42.7374C44.3774 23.8 45.6974 24 45.6974 26.4667C45.6974 29.3333 44.3774 29.1333 42.7374 29.1333H21.9908C20.3508 29.1333 19.0308 29.3333 19.0308 26.4667Z" stroke="#2756FF" stroke-width="1.5"/>
<path d="M21.0308 29.3333L22.9108 40.8533C23.3374 43.44 24.3641 45.3333 28.1774 45.3333H36.2174C40.3641 45.3333 40.9774 43.52 41.4574 41.0133L43.6974 29.3333" stroke="#2756FF" stroke-width="1.5" stroke-linecap="round"/>
</svg>
